<svg width="424" height="133" viewBox="0 0 424 133" fill="none" xmlns="http://www.w3.org/2000/svg">
<mask id="mask0_99_166" style="mask-type:luminance" maskUnits="userSpaceOnUse" x="10" y="76" width="59" height="57">
<path d="M10.3333 76.3335H68.9999V132.432H10.3333V76.3335Z" fill="white"/>
</mask>
<g mask="url(#mask0_99_166)">
<path d="M40.6145 121.604H56.328V105.401C57.5103 106.161 58.9114 106.604 60.4166 106.604C64.6145 106.604 68.0103 103.208 68.0103 99.0104C68.0103 94.8177 64.6145 91.4167 60.4166 91.4167C58.9114 91.4167 57.5103 91.8594 56.328 92.6198V76.4219H11.1614V92.6563C12.3541 91.875 13.7812 91.4167 15.3124 91.4167C19.5051 91.4167 22.9062 94.8177 22.9062 99.0104C22.9062 103.208 19.5051 106.604 15.3124 106.604C13.7812 106.604 12.3541 106.146 11.1614 105.365V121.604H26.8749C26.4166 122.583 26.151 123.667 26.151 124.818C26.151 129.016 29.552 132.417 33.7447 132.417C37.9374 132.417 41.3385 129.016 41.3385 124.818C41.3385 123.667 41.0728 122.583 40.6145 121.604Z" fill="#FACC14"/>
</g>
<mask id="mask1_99_166" style="mask-type:luminance" maskUnits="userSpaceOnUse" x="0" y="31" width="57" height="58">
<path d="M0.026123 31H57.0001V88.3333H0.026123V31Z" fill="white"/>
</mask>
<g mask="url(#mask1_99_166)">
<path d="M56.3283 60.5625C55.2814 61.1094 54.0887 61.4219 52.8283 61.4219C48.6356 61.4219 45.2345 58.0208 45.2345 53.8281C45.2345 49.6354 48.6356 46.2344 52.8283 46.2344C54.0887 46.2344 55.2814 46.5469 56.3283 47.0938V31.2344H40.9637C41.2033 31.974 41.3387 32.7604 41.3387 33.5781C41.3387 37.7708 37.9377 41.1719 33.745 41.1719C29.5522 41.1719 26.1512 37.7708 26.1512 33.5781C26.1512 32.7604 26.2866 31.974 26.5262 31.2344H11.1616V47.0625C10.1252 46.5365 8.9585 46.2344 7.71891 46.2344C3.5262 46.2344 0.130371 49.6302 0.130371 53.8281C0.130371 58.0208 3.5262 61.4219 7.71891 61.4219C8.9585 61.4219 10.1252 61.1198 11.1616 60.5885V76.4219H26.9272C26.4377 77.4271 26.1512 78.5521 26.1512 79.7448C26.1512 83.9375 29.5522 87.3385 33.745 87.3385C37.9377 87.3385 41.3387 83.9375 41.3387 79.7448C41.3387 78.5521 41.0522 77.4271 40.5627 76.4219H56.3283V60.5625Z" fill="white"/>
</g>
<path d="M407.68 62.3047L413.721 48.542H423.992L412.45 71.1568V85.6462H402.888V71.4651L391.346 48.542H401.68L407.68 62.3047Z" fill="white"/>
<mask id="mask2_99_166" style="mask-type:luminance" maskUnits="userSpaceOnUse" x="62" y="5" width="65" height="64">
<path d="M62.3333 5.43213H126.026V68.3332H62.3333V5.43213Z" fill="white"/>
</mask>
<g mask="url(#mask2_99_166)">
<path d="M77.8384 47.5832C80.229 44.1353 84.9582 43.2811 88.4009 45.6717C91.8488 48.0571 92.7082 52.7915 90.3175 56.2394C89.4165 57.5415 88.1821 58.4686 86.8071 58.9998L100.208 68.2915L109.109 55.4425C109.64 56.3071 110.354 57.078 111.239 57.6925C114.687 60.0832 119.417 59.2238 121.807 55.7759C124.193 52.328 123.338 47.5988 119.89 45.2082C119.005 44.5936 118.031 44.1978 117.036 43.9998L125.937 31.1561L112.906 22.1196C113.958 21.5728 114.89 20.7707 115.609 19.7342C118 16.2863 117.146 11.5519 113.698 9.1613C110.25 6.77067 105.521 7.63005 103.13 11.078C102.411 12.1196 101.989 13.2759 101.844 14.4478L88.8175 5.4165L79.7863 18.4478C79.2342 17.4009 78.4373 16.4634 77.4009 15.7446C73.953 13.354 69.2238 14.2134 66.8332 17.6613C64.4478 21.1092 65.3019 25.8436 68.7498 28.229C69.7863 28.953 70.9425 29.3696 72.1144 29.5207L63.0884 42.5519L76.4842 51.8436C76.4998 50.3696 76.9373 48.8853 77.8384 47.5832Z" fill="#21C55D"/>
</g>
<path d="M101.495 105.969C102.422 106.375 103.448 106.604 104.526 106.604C108.719 106.604 112.12 103.208 112.12 99.0103C112.12 94.8175 108.719 91.4165 104.526 91.4165C103.448 91.4165 102.422 91.6457 101.495 92.0519V76.4217H85.1875C86.0156 75.203 86.5 73.7342 86.5 72.1509C86.5 67.9582 83.1042 64.5571 78.9115 64.5571C74.7187 64.5571 71.3177 67.9582 71.3177 72.1509C71.3177 73.7342 71.8021 75.203 72.6302 76.4217H56.3281V92.6196C57.5104 91.8592 58.9115 91.4165 60.4167 91.4165C64.6146 91.4165 68.0104 94.8175 68.0104 99.0103C68.0104 103.208 64.6146 106.604 60.4167 106.604C58.9115 106.604 57.5104 106.161 56.3281 105.401V121.604H72.7135C71.8385 120.364 71.3177 118.859 71.3177 117.224C71.3177 113.031 74.7187 109.63 78.9115 109.63C83.1042 109.63 86.5 113.031 86.5 117.224C86.5 118.859 85.9844 120.364 85.1094 121.604H101.495V105.969Z" fill="#EF4444"/>
<path d="M153.917 56.2435C151.667 56.2435 149.906 57.2275 148.646 59.1899C147.38 61.1414 146.75 63.8294 146.75 67.2596C146.75 74.3837 149.318 77.9458 154.458 77.9458C156 77.9458 157.5 77.7204 158.958 77.2641C160.417 76.8134 161.88 76.2637 163.354 75.615V84.0804C160.422 85.4437 157.109 86.1253 153.417 86.1253C148.125 86.1253 144.063 84.5092 141.229 81.266C138.406 78.0282 137 73.3393 137 67.1936C137 63.3677 137.677 60.0035 139.042 57.1011C140.417 54.1877 142.385 51.9504 144.958 50.3947C147.526 48.8281 150.547 48.042 154.021 48.042C157.813 48.042 161.438 48.916 164.896 50.6586L161.979 58.5303C160.688 57.8872 159.385 57.3429 158.083 56.9032C156.792 56.4634 155.401 56.2435 153.917 56.2435Z" fill="white"/>
<path d="M203.024 67.0405C203.024 73.2847 201.571 78.0284 198.67 81.2659C195.779 84.509 191.545 86.125 185.961 86.125C180.461 86.125 176.237 84.498 173.295 81.2439C170.362 77.9789 168.899 73.2298 168.899 66.9965C168.899 60.8293 170.357 56.1241 173.274 52.8811C176.19 49.627 180.43 48 186.003 48C191.597 48 195.836 49.616 198.711 52.8371C201.586 56.0636 203.024 60.7963 203.024 67.0405ZM178.878 67.0405C178.878 74.2082 181.237 77.792 185.961 77.792C188.362 77.792 190.138 76.929 191.295 75.1976C192.461 73.4551 193.045 70.7343 193.045 67.0405C193.045 63.3467 192.451 60.6204 191.274 58.8614C190.107 57.0915 188.347 56.2011 186.003 56.2011C181.253 56.2011 178.878 59.8179 178.878 67.0405Z" fill="white"/>
<path d="M224.987 56.2435C222.737 56.2435 220.976 57.2275 219.716 59.1899C218.45 61.1414 217.82 63.8294 217.82 67.2596C217.82 74.3837 220.388 77.9458 225.528 77.9458C227.07 77.9458 228.57 77.7204 230.028 77.2641C231.487 76.8134 232.95 76.2637 234.424 75.615V84.0804C231.492 85.4437 228.179 86.1253 224.487 86.1253C219.195 86.1253 215.133 84.5092 212.299 81.266C209.476 78.0282 208.07 73.3393 208.07 67.1936C208.07 63.3677 208.747 60.0035 210.112 57.1011C211.487 54.1877 213.455 51.9504 216.028 50.3947C218.596 48.8281 221.617 48.042 225.091 48.042C228.883 48.042 232.508 48.916 235.966 50.6586L233.049 58.5303C231.758 57.8872 230.455 57.3429 229.153 56.9032C227.862 56.4634 226.471 56.2435 224.987 56.2435Z" fill="white"/>
<path d="M274.094 67.0405C274.094 73.2847 272.641 78.0284 269.74 81.2659C266.849 84.509 262.615 86.125 257.031 86.125C251.531 86.125 247.307 84.498 244.365 81.2439C241.432 77.9789 239.969 73.2298 239.969 66.9965C239.969 60.8293 241.427 56.1241 244.344 52.8811C247.26 49.627 251.5 48 257.073 48C262.667 48 266.906 49.616 269.781 52.8371C272.656 56.0636 274.094 60.7963 274.094 67.0405ZM249.948 67.0405C249.948 74.2082 252.307 77.792 257.031 77.792C259.432 77.792 261.208 76.929 262.365 75.1976C263.531 73.4551 264.115 70.7343 264.115 67.0405C264.115 63.3467 263.521 60.6204 262.344 58.8614C261.177 57.0915 259.417 56.2011 257.073 56.2011C252.323 56.2011 249.948 59.8179 249.948 67.0405Z" fill="white"/>
<path d="M293.201 48.542H305.451C310.211 48.542 313.748 49.2907 316.055 50.7881C318.373 52.2854 319.534 54.6196 319.534 57.7905C319.534 59.8604 319.024 61.6386 318.013 63.1194C317.013 64.5893 315.685 65.5361 314.034 65.96V66.2023C316.211 66.8188 317.789 67.8428 318.763 69.2631C319.748 70.6724 320.243 72.5166 320.243 74.7902C320.243 78.1538 319.039 80.8017 316.638 82.7395C314.248 84.6773 310.993 85.6462 306.868 85.6462H293.201V48.542ZM302.68 62.7891H305.534C306.894 62.7891 307.941 62.4973 308.68 61.9083C309.43 61.3082 309.805 60.4274 309.805 59.2659C309.805 57.185 308.316 56.139 305.347 56.139H302.68V62.7891ZM302.68 70.1219V77.917H306.013C308.982 77.917 310.472 76.5958 310.472 73.9534C310.472 72.7203 310.076 71.7734 309.284 71.1128C308.493 70.4522 307.336 70.1219 305.826 70.1219H302.68Z" fill="white"/>
<path d="M347.866 85.646L346.136 78.6891H334.72L332.949 85.646H322.532L333.991 48.396H346.636L358.241 85.646H347.866ZM344.157 70.4774L342.657 64.3792C342.293 63.0307 341.866 61.286 341.366 59.1395C340.866 56.982 340.532 55.4409 340.366 54.5163C340.225 55.3859 339.938 56.8059 339.511 58.7872C339.095 60.7576 338.157 64.6543 336.699 70.4774H344.157Z" fill="white"/>
<path d="M362.015 48.542H374.265C379.025 48.542 382.562 49.2907 384.869 50.7881C387.187 52.2854 388.348 54.6196 388.348 57.7905C388.348 59.8604 387.838 61.6386 386.827 63.1194C385.827 64.5893 384.499 65.5361 382.848 65.96V66.2023C385.025 66.8188 386.603 67.8428 387.577 69.2631C388.562 70.6724 389.057 72.5166 389.057 74.7902C389.057 78.1538 387.853 80.8017 385.452 82.7395C383.062 84.6773 379.807 85.6462 375.682 85.6462H362.015V48.542ZM371.494 62.7891H374.348C375.708 62.7891 376.754 62.4973 377.494 61.9083C378.244 61.3082 378.619 60.4274 378.619 59.2659C378.619 57.185 377.129 56.139 374.161 56.139H371.494V62.7891ZM371.494 70.1219V77.917H374.827C377.796 77.917 379.286 76.5958 379.286 73.9534C379.286 72.7203 378.89 71.7734 378.098 71.1128C377.307 70.4522 376.15 70.1219 374.64 70.1219H371.494Z" fill="white"/>
</svg>
