<svg width="500" height="500" viewBox="0 0 500 500" fill="none" xmlns="http://www.w3.org/2000/svg">
<mask id="mask0_100_167" style="mask-type:luminance" maskUnits="userSpaceOnUse" x="152" y="181" width="108" height="106">
<path d="M152 181.333H260V287H152V181.333Z" fill="white"/>
</mask>
<g mask="url(#mask0_100_167)">
<path d="M208.24 266.792H237.672V236.557C239.886 237.974 242.511 238.807 245.333 238.807C253.188 238.807 259.557 232.464 259.557 224.63C259.557 216.807 253.188 210.458 245.333 210.458C242.511 210.458 239.886 211.292 237.672 212.703V182.474H153.073V212.771C155.307 211.313 157.974 210.458 160.849 210.458C168.698 210.458 175.068 216.807 175.068 224.63C175.068 232.464 168.698 238.807 160.849 238.807C157.974 238.807 155.307 237.953 153.073 236.495V266.792H182.505C181.646 268.62 181.151 270.646 181.151 272.797C181.151 280.625 187.521 286.969 195.37 286.969C203.224 286.969 209.594 280.625 209.594 272.797C209.594 270.646 209.099 268.62 208.24 266.792Z" fill="#FACC14"/>
</g>
<mask id="mask1_100_167" style="mask-type:luminance" maskUnits="userSpaceOnUse" x="249" y="50" width="120" height="118">
<path d="M249.333 50H368.219V168H249.333V50Z" fill="white"/>
</mask>
<g mask="url(#mask1_100_167)">
<path d="M277.958 128.661C282.432 122.229 291.297 120.63 297.75 125.089C304.203 129.547 305.813 138.38 301.339 144.813C299.651 147.24 297.333 148.979 294.76 149.964L319.859 167.302L336.531 143.328C337.531 144.943 338.865 146.38 340.526 147.526C346.979 151.984 355.839 150.385 360.313 143.953C364.786 137.516 363.182 128.688 356.724 124.229C355.063 123.083 353.245 122.344 351.38 121.974L368.052 98.0052L343.646 81.1458C345.609 80.1198 347.359 78.625 348.714 76.6875C353.188 70.2552 351.578 61.4219 345.125 56.9635C338.672 52.5052 329.807 54.1042 325.333 60.5365C323.99 62.4792 323.198 64.6354 322.922 66.8281L298.521 49.9688L281.609 74.2917C280.578 72.3385 279.083 70.5937 277.135 69.25C270.682 64.7917 261.823 66.3906 257.349 72.8229C252.875 79.2604 254.484 88.0885 260.938 92.5469C262.88 93.8906 265.047 94.6719 267.24 94.9479L250.328 119.271L275.427 136.609C275.453 133.865 276.271 131.094 277.958 128.661Z" fill="#21C55D"/>
</g>
<path d="M322.271 237.62C324.01 238.38 325.927 238.807 327.948 238.807C335.802 238.807 342.172 232.464 342.172 224.63C342.172 216.807 335.802 210.458 327.948 210.458C325.927 210.458 324.01 210.886 322.271 211.641V182.474H291.729C293.281 180.203 294.188 177.458 294.188 174.505C294.188 166.682 287.823 160.333 279.969 160.333C272.115 160.333 265.75 166.682 265.75 174.505C265.75 177.458 266.656 180.203 268.208 182.474H237.672V212.703C239.885 211.292 242.51 210.458 245.333 210.458C253.188 210.458 259.557 216.807 259.557 224.63C259.557 232.464 253.188 238.807 245.333 238.807C242.51 238.807 239.885 237.974 237.672 236.557V266.792H268.359C266.719 264.479 265.75 261.667 265.75 258.62C265.75 250.797 272.115 244.448 279.969 244.448C287.823 244.448 294.188 250.797 294.188 258.62C294.188 261.667 293.219 264.479 291.578 266.792H322.271V237.62Z" fill="#EF4444"/>
<mask id="mask2_100_167" style="mask-type:luminance" maskUnits="userSpaceOnUse" x="132" y="97" width="107" height="107">
<path d="M132.219 97.3335H238.667V204H132.219V97.3335Z" fill="white"/>
</mask>
<g mask="url(#mask2_100_167)">
<path d="M237.672 152.885C235.708 153.901 233.479 154.49 231.115 154.49C223.26 154.49 216.891 148.141 216.891 140.313C216.891 132.49 223.26 126.141 231.115 126.141C233.479 126.141 235.708 126.724 237.672 127.745V98.1562H208.896C209.344 99.5313 209.594 101 209.594 102.526C209.594 110.354 203.224 116.698 195.37 116.698C187.521 116.698 181.151 110.354 181.151 102.526C181.151 101 181.401 99.5313 181.849 98.1562H153.073V127.693C151.135 126.708 148.948 126.141 146.625 126.141C138.771 126.141 132.406 132.484 132.406 140.313C132.406 148.141 138.776 154.49 146.625 154.49C148.948 154.49 151.135 153.922 153.073 152.938V182.474H182.604C181.682 184.349 181.151 186.453 181.151 188.682C181.151 196.505 187.521 202.854 195.37 202.854C203.224 202.854 209.594 196.505 209.594 188.682C209.594 186.453 209.063 184.349 208.141 182.474H237.672V152.885Z" fill="#3B81F6"/>
</g>
<path d="M87.2493 313.836C84.3171 313.836 82.0306 315.039 80.3952 317.44C78.7546 319.847 77.9368 323.149 77.9368 327.357C77.9368 336.138 81.2702 340.524 87.9368 340.524C89.9473 340.524 91.9004 340.248 93.791 339.69C95.6921 339.123 97.5931 338.44 99.4993 337.649V348.065C95.7077 349.748 91.4056 350.586 86.6035 350.586C79.7285 350.586 74.4577 348.597 70.791 344.607C67.1243 340.607 65.291 334.836 65.291 327.294C65.291 322.586 66.1712 318.451 67.9368 314.878C69.7129 311.294 72.2702 308.544 75.6035 306.628C78.9473 304.701 82.8743 303.732 87.3743 303.732C92.3014 303.732 97.0098 304.805 101.499 306.94L97.7285 316.649C96.0462 315.857 94.3587 315.19 92.666 314.649C90.9837 314.107 89.1764 313.836 87.2493 313.836Z" fill="#3B81F6"/>
<path d="M151.023 327.107C151.023 334.774 149.138 340.607 145.377 344.607C141.612 348.597 136.107 350.586 128.857 350.586C121.716 350.586 116.237 348.581 112.419 344.565C108.612 340.555 106.711 334.711 106.711 327.044C106.711 319.461 108.607 313.669 112.398 309.669C116.19 305.669 121.695 303.669 128.919 303.669C136.169 303.669 141.659 305.659 145.398 309.628C149.148 313.602 151.023 319.43 151.023 327.107ZM119.669 327.107C119.669 335.93 122.732 340.336 128.857 340.336C131.982 340.336 134.294 339.268 135.794 337.128C137.304 334.992 138.065 331.649 138.065 327.107C138.065 322.565 137.299 319.211 135.773 317.044C134.242 314.867 131.961 313.774 128.919 313.774C122.752 313.774 119.669 318.222 119.669 327.107Z" fill="#3B81F6"/>
<path d="M179.532 313.836C176.6 313.836 174.313 315.039 172.678 317.44C171.037 319.847 170.22 323.149 170.22 327.357C170.22 336.138 173.553 340.524 180.22 340.524C182.23 340.524 184.183 340.248 186.074 339.69C187.975 339.123 189.876 338.44 191.782 337.649V348.065C187.99 349.748 183.688 350.586 178.886 350.586C172.011 350.586 166.74 348.597 163.074 344.607C159.407 340.607 157.574 334.836 157.574 327.294C157.574 322.586 158.454 318.451 160.22 314.878C161.996 311.294 164.553 308.544 167.886 306.628C171.23 304.701 175.157 303.732 179.657 303.732C184.584 303.732 189.292 304.805 193.782 306.94L190.011 316.649C188.329 315.857 186.641 315.19 184.949 314.649C183.266 314.107 181.459 313.836 179.532 313.836Z" fill="#3B81F6"/>
<path d="M243.306 327.107C243.306 334.774 241.421 340.607 237.66 344.607C233.895 348.597 228.389 350.586 221.139 350.586C213.999 350.586 208.52 348.581 204.702 344.565C200.895 340.555 198.994 334.711 198.994 327.044C198.994 319.461 200.889 313.669 204.681 309.669C208.473 305.669 213.978 303.669 221.202 303.669C228.452 303.669 233.942 305.659 237.681 309.628C241.431 313.602 243.306 319.43 243.306 327.107ZM211.952 327.107C211.952 335.93 215.014 340.336 221.139 340.336C224.264 340.336 226.577 339.268 228.077 337.128C229.587 334.992 230.348 331.649 230.348 327.107C230.348 322.565 229.582 319.211 228.056 317.044C226.525 314.867 224.244 313.774 221.202 313.774C215.035 313.774 211.952 318.222 211.952 327.107Z" fill="#3B81F6"/>
<path d="M268.104 304.398H283.999C290.192 304.398 294.791 305.326 297.791 307.169C300.801 309.003 302.312 311.857 302.312 315.732C302.312 318.289 301.65 320.477 300.333 322.294C299.025 324.102 297.301 325.263 295.166 325.773V326.086C297.984 326.836 300.025 328.086 301.291 329.836C302.567 331.576 303.208 333.836 303.208 336.628C303.208 340.753 301.65 344.013 298.541 346.398C295.442 348.773 291.213 349.961 285.854 349.961H268.104V304.398ZM280.416 321.878H284.124C285.9 321.878 287.27 321.518 288.229 320.794C289.197 320.06 289.687 318.977 289.687 317.544C289.687 314.992 287.749 313.711 283.874 313.711H280.416V321.878ZM280.416 330.878V340.461H284.749C288.593 340.461 290.52 338.836 290.52 335.586C290.52 334.076 290.005 332.914 288.979 332.107C287.947 331.289 286.458 330.878 284.499 330.878H280.416Z" fill="#3B81F6"/>
<path d="M339.071 349.961L336.842 341.419H322.029L319.717 349.961H306.196L321.071 304.211H337.488L352.55 349.961H339.071ZM334.279 331.315L332.321 323.836C331.863 322.185 331.305 320.039 330.654 317.398C329.998 314.763 329.571 312.867 329.363 311.711C329.165 312.784 328.79 314.534 328.238 316.961C327.696 319.393 326.477 324.18 324.592 331.315H334.279Z" fill="#3B81F6"/>
<path d="M357.457 304.398H373.353C379.545 304.398 384.144 305.326 387.144 307.169C390.155 309.003 391.665 311.857 391.665 315.732C391.665 318.289 391.004 320.477 389.686 322.294C388.379 324.102 386.655 325.263 384.519 325.773V326.086C387.337 326.836 389.379 328.086 390.644 329.836C391.92 331.576 392.561 333.836 392.561 336.628C392.561 340.753 391.004 344.013 387.894 346.398C384.795 348.773 380.566 349.961 375.207 349.961H357.457V304.398ZM369.769 321.878H373.478C375.254 321.878 376.623 321.518 377.582 320.794C378.551 320.06 379.04 318.977 379.04 317.544C379.04 314.992 377.103 313.711 373.228 313.711H369.769V321.878ZM369.769 330.878V340.461H374.103C377.946 340.461 379.873 338.836 379.873 335.586C379.873 334.076 379.358 332.914 378.332 332.107C377.301 331.289 375.811 330.878 373.853 330.878H369.769Z" fill="#3B81F6"/>
<path d="M416.737 321.294L424.591 304.398H437.945L422.945 332.169V349.961H410.549V332.544L395.549 304.398H408.945L416.737 321.294Z" fill="#3B81F6"/>
</svg>
