<?xml version="1.0" encoding="utf-8"?>

<!-- Uploaded to: SVG Repo, www.svgrepo.com, Generator: SVG Repo Mixer Tools -->
<svg version="1.1" id="Icons" xmlns="http://www.w3.org/2000/svg" xmlns:xlink="http://www.w3.org/1999/xlink" 
	 viewBox="0 0 32 32" xml:space="preserve">
<style type="text/css">
	.st0{fill:none;stroke:#000000;stroke-width:2;stroke-linecap:round;stroke-linejoin:round;stroke-miterlimit:10;}
</style>
<g>
	<path d="M24.7,27.7c-0.7,0.5-1.8,0.5-2.5,0c-1.4-1.1-3.6-1.1-5,0c-0.7,0.5-1.8,0.5-2.5,0c-1.4-1.1-3.6-1.1-5,0
		c-0.7,0.5-1.8,0.5-2.5,0c-1.4-1.1-3.6-1.1-5,0c-0.4,0.3-0.5,1-0.2,1.4c0.3,0.4,1,0.5,1.4,0.2c0.7-0.5,1.8-0.5,2.5,0
		c0.7,0.6,1.6,0.8,2.5,0.8c0.9,0,1.8-0.3,2.5-0.8c0.7-0.5,1.8-0.5,2.5,0c1.4,1.1,3.6,1.1,5,0c0.7-0.5,1.8-0.5,2.5,0
		c1.4,1.1,3.6,1.1,5,0c0.7-0.5,1.8-0.5,2.5,0c0.4,0.3,1.1,0.3,1.4-0.2c0.3-0.4,0.3-1.1-0.2-1.4C28.2,26.6,26.1,26.6,24.7,27.7z"/>
	<path d="M29,9c0.6,0,1-0.4,1-1V6.5C30,4,28,2,25.5,2S21,4,21,6.5V11h-7c-0.6,0-1,0.4-1,1s0.4,1,1,1h7v2h-7c-0.6,0-1,0.4-1,1
		s0.4,1,1,1h7v2h-7c-0.6,0-1,0.4-1,1s0.4,1,1,1h7v1.1c-1.3-0.4-2.7-0.2-3.8,0.6c-0.7,0.5-1.8,0.5-2.5,0C14,22.1,13,21.8,12,21.9V6.5
		C12,5.1,13.1,4,14.5,4S17,5.1,17,6.5V8c0,0.6,0.4,1,1,1s1-0.4,1-1V6.5C19,4,17,2,14.5,2S10,4,10,6.5v16.1c-0.1,0-0.1,0.1-0.2,0.1
		c-0.7,0.5-1.8,0.5-2.5,0c-1.4-1.1-3.6-1.1-5,0c-0.4,0.3-0.5,1-0.2,1.4c0.3,0.4,1,0.5,1.4,0.2c0.7-0.5,1.8-0.5,2.5,0
		c0.7,0.6,1.6,0.8,2.5,0.8c0.9,0,1.8-0.3,2.5-0.8c0.7-0.5,1.8-0.5,2.5,0c1.4,1.1,3.6,1.1,5,0c0.7-0.5,1.8-0.5,2.5,0
		c1.4,1.1,3.6,1.1,5,0c0.7-0.5,1.8-0.5,2.5,0c0.4,0.3,1.1,0.3,1.4-0.2c0.3-0.4,0.3-1.1-0.2-1.4c-1.4-1.1-3.6-1.1-5,0
		c-0.4,0.4-1.1,0.4-1.7,0.3c0,0,0,0,0-0.1V6.5C23,5.1,24.1,4,25.5,4S28,5.1,28,6.5V8C28,8.6,28.4,9,29,9z"/>
</g>
</svg>