<?xml version="1.0" encoding="iso-8859-1"?>
<!-- Uploaded to: SVG Repo, www.svgrepo.com, Generator: SVG Repo Mixer Tools -->
<svg fill="#000000" height="800px" width="800px" version="1.1" id="Layer_1" xmlns="http://www.w3.org/2000/svg" xmlns:xlink="http://www.w3.org/1999/xlink" 
	 viewBox="0 0 512.001 512.001" xml:space="preserve">
<g>
	<g>
		<g>
			<path d="M511.966,502.682L469.334,42.667C469.334,19.141,450.193,0,426.667,0H85.334c-23.526,0-42.667,19.14-42.633,41.882
				l-42.667,460.8c-0.213,2.389,0.572,4.762,2.193,6.536C3.849,510.985,6.136,512,8.534,512h34.133c4.412,0,8.09-3.362,8.499-7.748
				L93.116,51.2h94.618v8.533c0,4.71,3.823,8.533,8.533,8.533s8.533-3.823,8.533-8.533V51.2h102.4v8.533
				c0,4.71,3.823,8.533,8.533,8.533s8.533-3.823,8.533-8.533V51.2h94.618l41.95,453.052c0.41,4.386,4.087,7.748,8.499,7.748h34.133
				c2.398,0,4.693-1.015,6.306-2.782C511.394,507.443,512.179,505.071,511.966,502.682z"/>
			<path d="M187.734,187.734c0,4.71,3.823,8.533,8.533,8.533s8.533-3.823,8.533-8.533v-17.067c0-4.71-3.823-8.533-8.533-8.533
				s-8.533,3.823-8.533,8.533V187.734z"/>
			<path d="M187.734,230.4c0,4.71,3.823,8.533,8.533,8.533s8.533-3.823,8.533-8.533v-17.067c0-4.71-3.823-8.533-8.533-8.533
				s-8.533,3.823-8.533,8.533V230.4z"/>
			<path d="M196.267,110.934c4.71,0,8.533-3.823,8.533-8.533V85.334c0-4.71-3.823-8.533-8.533-8.533s-8.533,3.823-8.533,8.533V102.4
				C187.734,107.111,191.557,110.934,196.267,110.934z"/>
			<path d="M187.734,145.067c0,4.71,3.823,8.533,8.533,8.533s8.533-3.823,8.533-8.533V128c0-4.71-3.823-8.533-8.533-8.533
				s-8.533,3.823-8.533,8.533V145.067z"/>
			<path d="M187.734,265.047c-14.669,2.423-26.436,14.208-28.339,29.389l-7.996,63.966h209.203l-7.996-63.966
				c-1.903-15.181-13.67-26.965-28.339-29.389v-9.045c0-4.71-3.823-8.533-8.533-8.533s-8.533,3.823-8.533,8.533v8.533H204.8v-8.533
				c0-4.71-3.823-8.533-8.533-8.533s-8.533,3.823-8.533,8.533V265.047z"/>
			<path d="M315.734,110.934c4.71,0,8.533-3.823,8.533-8.533V85.334c0-4.71-3.823-8.533-8.533-8.533s-8.533,3.823-8.533,8.533V102.4
				C307.2,107.111,311.023,110.934,315.734,110.934z"/>
			<path d="M307.2,230.4c0,4.71,3.823,8.533,8.533,8.533s8.533-3.823,8.533-8.533v-17.067c0-4.71-3.823-8.533-8.533-8.533
				s-8.533,3.823-8.533,8.533V230.4z"/>
			<path d="M307.2,187.734c0,4.71,3.823,8.533,8.533,8.533s8.533-3.823,8.533-8.533v-17.067c0-4.71-3.823-8.533-8.533-8.533
				s-8.533,3.823-8.533,8.533V187.734z"/>
			<path d="M307.2,145.067c0,4.71,3.823,8.533,8.533,8.533s8.533-3.823,8.533-8.533V128c0-4.71-3.823-8.533-8.533-8.533
				S307.2,123.29,307.2,128V145.067z"/>
			<path d="M148.384,382.529c-2.389,19.106,8.354,37.623,26.129,45.03c23.245,9.685,48.026,14.985,72.951,15.974v-68.07h-98.193
				L148.384,382.529z"/>
			<path d="M362.734,375.467h-98.202v68.07c24.934-0.99,49.715-6.289,72.96-15.983c17.766-7.398,28.51-25.924,26.129-45.022
				L362.734,375.467z"/>
		</g>
	</g>
</g>
</svg>