<?xml version="1.0" encoding="iso-8859-1"?>
<!-- Uploaded to: SVG Repo, www.svgrepo.com, Generator: SVG Repo Mixer Tools -->
<svg fill="#000000" height="800px" width="800px" version="1.1" id="Layer_1" xmlns="http://www.w3.org/2000/svg" xmlns:xlink="http://www.w3.org/1999/xlink" 
	 viewBox="0 0 512 512" xml:space="preserve">
<g>
	<g>
		<path d="M375.118,179.514c-31.897-4.703-74.201-7.292-119.118-7.292c-44.917,0-87.221,2.591-119.118,7.292
			c-40.795,6.014-57.435,13.963-57.435,27.433c0,13.47,16.64,21.418,57.435,27.433c31.897,4.703,74.201,7.292,119.118,7.292
			s87.221-2.591,119.118-7.292c40.795-6.014,57.435-13.963,57.435-27.433C432.553,193.477,415.913,185.53,375.118,179.514z
			 M363.699,215.36c-29.804,3.815-68.053,5.914-107.699,5.914s-77.895-2.101-107.699-5.914c-22.464-2.874-35.034-6.048-41.903-8.412
			c6.87-2.364,19.44-5.538,41.903-8.413c29.804-3.814,68.053-5.914,107.699-5.914s77.895,2.101,107.699,5.914
			c22.464,2.874,35.034,6.049,41.903,8.413C398.733,209.311,386.162,212.485,363.699,215.36z"/>
	</g>
</g>
<g>
	<g>
		<path d="M511.821,319.154l-1.009-5.332c-1.046-5.535-6.384-9.172-11.917-8.126c-5.535,1.046-9.173,6.382-8.126,11.917l1.009,5.332
			c0.926,4.895,5.205,8.306,10.009,8.306c0.628,0,1.267-0.059,1.907-0.18C509.229,330.024,512.867,324.689,511.821,319.154z"/>
	</g>
</g>
<g>
	<g>
		<path d="M503.952,277.564l-14.072-74.38c-2.685-20.163-27.156-36.655-72.861-49.06c-43.142-11.71-100.327-18.16-161.02-18.16
			c-60.693,0-117.877,6.449-161.02,18.159c-45.704,12.405-70.176,28.897-72.861,49.06L0.18,319.154
			c-1.047,5.535,2.591,10.87,8.126,11.918c0.641,0.121,1.278,0.18,1.907,0.18c4.804,0,9.084-3.412,10.009-8.305l16.798-88.792
			c12.119,9.857,31.464,18.425,57.96,25.616c40.717,11.052,93.943,17.414,150.821,18.095v87.971c0,5.633,4.566,10.199,10.199,10.199
			c5.633,0,10.199-4.566,10.199-10.199v-87.971c56.877-0.68,110.104-7.044,150.821-18.095c26.496-7.191,45.841-15.76,57.96-25.616
			l8.93,47.203c0.926,4.895,5.206,8.305,10.009,8.305c0.63,0,1.268-0.059,1.908-0.181C501.362,288.434,505,283.099,503.952,277.564z
			 M411.677,240.085c-41.45,11.251-96.738,17.447-155.676,17.447s-114.226-6.196-155.676-17.447
			c-40.109-10.887-58.063-24.487-58.063-33.137c0-0.244,0.019-0.493,0.048-0.745l0.198-1.046
			c2.247-8.658,20.376-21.184,57.817-31.347c41.45-11.251,96.738-17.447,155.676-17.447s114.226,6.196,155.676,17.447
			c37.441,10.162,55.57,22.689,57.817,31.347l0.198,1.046c0.029,0.251,0.048,0.5,0.048,0.745
			C469.739,215.598,451.786,229.198,411.677,240.085z"/>
	</g>
</g>
</svg>