<svg width="268" height="87" viewBox="0 0 268 87" fill="none" xmlns="http://www.w3.org/2000/svg">
<path d="M100.736 39.8435C102.856 43.5205 104.711 49.5633 106.245 54.658C107.199 57.8632 109.849 64.3778 109.849 67.2662C109.849 69.5788 108.841 71.4151 105.611 71.4151C103.068 71.4151 102.007 69.5766 101.053 67.2131C100.312 65.4255 99.1454 64.1673 97.2375 64.061C96.3372 64.0078 94.4292 63.7996 92.3627 63.7996C89.025 63.7996 87.9124 64.7986 87.1171 66.1631C85.7923 68.4203 85.3678 71.4151 82.1373 71.4151C78.7996 71.4151 77.8992 69.7338 77.8992 67.2131C77.8992 63.7996 83.3571 49.1934 84.7869 44.8341C86.1654 40.6321 88.3905 36.6383 93.7948 36.6383C96.1272 36.6405 99.3063 37.3227 100.736 39.8435ZM96.9761 58.0736C97.8764 57.9164 98.6182 57.181 98.6182 56.0247C98.6182 53.9226 96.7102 49.0893 95.8635 47.0403C95.4927 46.1986 94.9096 45.1486 93.9042 45.1486C93.3211 45.1486 92.5794 45.5163 92.3672 45.9904C91.1496 48.1966 89.1345 54.658 89.1345 55.7079C89.1345 57.9141 91.1474 58.3328 92.843 58.3328C94.2192 58.335 95.8613 58.335 96.9761 58.0736Z" fill="#FFBA1F"/>
<path d="M122.19 40.8426C122.19 46.4645 121.395 51.6123 121.395 55.5529C121.395 57.5487 121.341 58.2841 121.341 60.1227C121.341 62.1184 121.5 63.6424 124.254 63.6424C126.692 63.6424 129.288 63.1706 131.884 63.1706C134.587 63.1706 136.917 63.6424 136.917 66.9008C136.917 69.8424 135.646 71.681 132.413 71.681C131.196 71.681 128.917 71.2601 125.472 71.2601C123.618 71.2601 121.763 71.3642 119.909 71.3642C114.558 71.3642 113.287 69.4194 113.287 64.7987C113.287 60.9112 113.658 56.8133 113.658 52.9258C113.658 49.4061 113.234 45.6249 113.234 42.052C113.234 38.1645 114.134 36.6406 118.321 36.6406C121.29 36.6406 122.19 37.7946 122.19 40.8426Z" fill="#FFBA1F"/>
<path d="M168.286 49.4594C168.286 57.6552 162.828 62.278 154.986 62.278C153.398 62.278 150.853 62.1739 149.582 61.5426C149.636 63.5384 150.007 64.4333 150.007 66.4801C150.007 69.579 148.999 71.8383 145.344 71.8383C142.111 71.8383 140.787 69.5258 140.787 66.5332C140.787 62.7521 141.104 58.7583 141.104 54.924C141.104 49.9334 140.628 46.2032 140.628 43.1575C140.628 36.3284 149.424 36.3284 153.715 36.3284C162.669 36.3262 168.286 39.6355 168.286 49.4594ZM160.127 49.1426C160.127 45.151 157.585 43.2062 153.664 43.2062C152.71 43.2062 150.802 43.3635 149.743 44.4156C148.525 45.7823 148.525 48.2499 148.525 49.1958C148.525 51.4552 148.843 53.2937 149.797 54.1332C150.643 54.8686 152.18 55.2363 153.293 55.2363C157.319 55.2363 160.127 53.3468 160.127 49.1426Z" fill="#FFBA1F"/>
<path d="M194.778 43.3655C196.473 48.3561 197.374 52.4008 198.911 57.4446C199.97 60.9643 201.878 64.4841 201.878 68.5288C201.878 71.3132 199.228 71.6809 197.057 71.6809C192.818 71.6809 193.507 64.6945 190.486 64.5882C187.414 64.535 184.445 64.535 182.274 64.535C181.054 64.535 180.153 65.0069 179.57 66.1631C178.087 68.9984 178.299 71.7318 174.22 71.7318C171.358 71.7318 169.982 70.2079 169.982 67.3726C169.982 63.1174 173.424 56.4987 175.174 50.8769C177.504 43.4165 177.028 41.2102 181.107 37.9541C182.432 36.9551 184.391 36.7978 186.087 36.7978C191.759 36.7978 193.348 39.004 194.778 43.3655ZM186.514 58.6518C188.21 58.6518 190.54 58.3372 190.54 56.131C190.54 54.5029 188.951 49.5124 188.368 47.9352C188.051 47.0425 187.361 45.3613 186.197 45.3613C184.076 45.3613 182.434 51.4018 182.117 52.7154C181.851 53.8185 181.588 55.0789 181.588 56.2351C181.585 58.5455 184.818 58.6518 186.514 58.6518Z" fill="#FFBA1F"/>
<path d="M227.679 46.9896C223.758 46.9896 224.976 44.2584 219.413 44.2584C214.275 44.2584 212.367 48.8813 212.367 54.2396C212.367 59.7551 215.229 63.9571 220.313 63.9571C225.293 63.9571 225.93 60.5947 229.268 60.5947C231.6 60.5947 233.03 61.9614 233.03 64.1144C233.03 69.5259 226.62 71.783 219.996 71.783C208.975 71.783 203.996 64.6903 203.996 54.6582C203.996 44.3625 208.605 36.4303 219.891 36.4303C224.024 36.4303 231.866 37.7439 231.866 43.2063C231.866 45.3615 230.382 46.9896 227.679 46.9896Z" fill="#FFBA1F"/>
<path d="M260.9 43.3655C262.596 48.3561 263.496 52.4008 265.033 57.4446C266.092 60.9643 268 64.4841 268 68.5288C268 71.3132 265.35 71.6809 263.179 71.6809C258.941 71.6809 259.629 64.6945 256.608 64.5882C253.534 64.535 250.567 64.535 248.396 64.535C247.176 64.535 246.276 65.0069 245.693 66.1631C244.209 68.9984 244.421 71.7318 240.342 71.7318C237.48 71.7318 236.104 70.2079 236.104 67.3726C236.104 63.1174 239.547 56.4987 241.296 50.8769C243.626 43.4165 243.15 41.2102 247.23 37.9541C248.554 36.9551 250.514 36.7978 252.209 36.7978C257.88 36.7978 259.47 39.004 260.9 43.3655ZM252.636 58.6518C254.332 58.6518 256.662 58.3372 256.662 56.131C256.662 54.5029 255.074 49.5124 254.49 47.9352C254.173 47.0425 253.483 45.3613 252.319 45.3613C250.199 45.3613 248.557 51.4018 248.239 52.7154C247.974 53.8185 247.71 55.0789 247.71 56.2351C247.708 58.5455 250.941 58.6518 252.636 58.6518Z" fill="#FFBA1F"/>
<path d="M43.2442 55.4379C43.1079 55.6395 42.994 56.016 42.7527 56.1312C42.2321 56.3793 41.868 56.6916 41.6155 57.046C41.5865 57.0881 41.5508 57.1324 41.5128 57.1967C41.0302 58.0162 41.1486 59.7551 41.171 60.0209C41.3877 62.6945 41.2693 63.0268 41.7027 63.4498C42.1339 63.8707 42.7102 63.9859 42.6745 64.2606C42.641 64.5153 42.1182 64.6526 41.7898 64.739C41.2201 64.8896 40.7666 64.8232 40.5946 64.7922C40.3868 64.7545 39.6406 64.6172 39.5937 64.3026C39.5602 64.0701 39.931 63.9128 40.2014 63.6669C40.8403 63.0843 40.5834 62.3201 40.599 59.4383C40.6057 58.034 40.6705 57.4691 40.2393 56.9951C40.1321 56.8777 39.7657 56.397 39.4395 56.1888C38.9771 55.8942 38.5057 55.3581 39.0017 54.7601C39.3993 54.2794 39.9802 54.4655 40.3667 54.8221C41.019 55.4224 41.4793 54.9727 42.049 54.6958C42.6589 54.3968 43.1794 54.5186 43.2442 55.4379Z" fill="#48516E" stroke="#48516E" stroke-width="0.55" stroke-miterlimit="10" stroke-linecap="round" stroke-linejoin="round"/>
<path d="M27.5474 48.4497C27.4268 48.4497 27.3061 48.412 27.2056 48.3323C26.9643 48.144 26.9219 47.7984 27.1118 47.5592C27.9987 46.4384 29.0219 45.8403 30.0742 45.827C31.1264 45.8093 32.1385 46.3852 33.0254 47.4706C33.2198 47.7076 33.1818 48.0532 32.9428 48.2459C32.7037 48.4364 32.353 48.4009 32.1608 48.1639C31.7006 47.5991 30.9701 46.9301 30.1032 46.9301C30.0965 46.9301 30.0921 46.9301 30.0854 46.9301C29.1984 46.939 28.4545 47.6478 27.9875 48.2392C27.8758 48.3766 27.7127 48.4497 27.5474 48.4497Z" fill="#48516E" stroke="#48516E" stroke-width="0.55" stroke-miterlimit="10" stroke-linecap="round" stroke-linejoin="round"/>
<path d="M48.8181 48.5494C48.6975 48.5494 48.5768 48.5117 48.4763 48.432C48.235 48.2437 48.1926 47.8982 48.3825 47.6589C49.2694 46.5381 50.2926 45.9378 51.3449 45.9267C52.3904 45.9267 53.4092 46.4849 54.2961 47.5681C54.4905 47.8051 54.4525 48.1507 54.2134 48.3434C53.9744 48.5361 53.6236 48.4985 53.4315 48.2614C52.9713 47.6966 52.2407 47.0276 51.3739 47.0276C51.3672 47.0276 51.3627 47.0276 51.356 47.0276C50.4691 47.0365 49.7252 47.7453 49.256 48.3368C49.1465 48.4763 48.9834 48.5494 48.8181 48.5494Z" fill="#48516E" stroke="#48516E" stroke-width="0.55" stroke-miterlimit="10" stroke-linecap="round" stroke-linejoin="round"/>
<path d="M66.6239 61.4973C66.6239 60.1129 66.0944 58.8525 65.232 57.8956C66.0944 56.9387 66.6239 55.6783 66.6239 54.2939C66.6239 52.812 66.0229 51.4718 65.0511 50.495C66.4652 49.0707 67.0282 46.9243 66.3178 44.913C65.8553 43.6061 64.9371 42.5916 63.8044 41.9714C64.3004 40.7863 64.3786 39.424 63.9184 38.1171C63.2213 36.1435 61.4855 34.8299 59.5306 34.5553C59.6401 34.4091 59.7317 34.2452 59.7808 34.0547C63.7575 18.6177 57.9042 11.4187 55.1272 8.99321C54.419 8.3752 53.3132 8.55241 52.8462 9.36534C50.9607 12.6503 49.4393 18.8237 48.5367 23.1697C47.538 21.9714 46.0323 21.2072 44.3411 21.2072C42.9448 21.2072 41.6736 21.7321 40.7084 22.5872C39.7433 21.7321 38.4721 21.2072 37.0758 21.2072C35.3846 21.2072 33.8788 21.9736 32.8802 23.1697C31.9754 18.8237 30.4562 12.6481 28.5706 9.36313C28.1037 8.55019 26.9978 8.37077 26.2896 8.991C23.5104 11.4165 17.6549 18.6155 21.6316 34.0524C21.6807 34.2429 21.7723 34.4069 21.8818 34.553C19.927 34.8277 18.1911 36.1413 17.494 38.1149C17.0316 39.4218 17.112 40.7841 17.608 41.9691C16.4753 42.5894 15.5548 43.6039 15.0946 44.9108C14.3842 46.9243 14.9472 49.0685 16.3613 50.4928C15.3873 51.4741 14.7863 52.8142 14.7863 54.2961C14.7863 55.6805 15.3158 56.9409 16.1782 57.8978C15.3158 58.8525 14.7863 60.1129 14.7863 61.4973C14.7863 63.4687 15.8542 65.1899 17.4426 66.1357C16.9601 71.5914 16.4775 77.045 15.9905 82.5007C15.8386 84.337 17.1455 86.1711 19.0132 86.2043C27.1989 86.2885 33.2779 86.2376 40.6973 86.2043H40.7151C48.1368 86.2376 54.2157 86.2885 62.4171 86.2043C64.2691 86.1711 65.5761 84.3348 65.4219 82.5007C64.9349 77.0472 64.4523 71.5914 63.9698 66.1357C65.5582 65.1899 66.6239 63.4687 66.6239 61.4973ZM54.7385 13.286C55.9606 13.2838 57.1022 17.7672 57.4686 19.9911C57.8752 22.4631 57.721 24.5409 57.6004 26.0316C57.4261 28.198 57.0553 29.9811 56.7335 31.2437C54.8949 29.3919 53.054 27.5423 51.2153 25.6905C52.6787 15.4613 53.8873 13.286 54.7385 13.286ZM23.9774 19.743C24.3773 17.5257 25.5859 13.0601 26.8079 13.0778C27.6591 13.0911 28.8343 15.284 30.1457 25.5354C28.278 27.3585 26.4125 29.1837 24.5448 31.0067C24.2432 29.7397 23.8992 27.9499 23.7562 25.7813C23.6579 24.2884 23.5328 22.2106 23.9774 19.743ZM58.5052 50.7741C57.3189 56.8877 52.9646 61.5948 48.8025 64.8332C45.304 67.5533 41.9417 69.2346 40.7062 69.8304C38.0007 68.528 25.0922 62.0267 22.9072 50.7763C22.447 48.4106 21.5668 43.8785 24.3504 40.5692C26.5555 37.9488 29.7927 37.6719 30.1881 37.6431C34.4016 37.3374 38.7335 40.4252 40.666 45.3959C42.6409 40.4164 46.9929 37.3263 51.2221 37.6431C51.6309 37.6741 54.8614 37.9554 57.0597 40.5692C59.8456 43.8763 58.9654 48.4106 58.5052 50.7741Z" fill="#FFBA1F"/>
<path d="M46.5777 2.35263C46.5777 2.35263 42.9724 -2.4676 25.8759 1.69105C14.476 5.55958 5.94782 29.5797 1.87352 32.7126C0.85494 34.1633 2.48055 37.0698 5.43339 37.0698C8.38623 37.0698 30.7743 17.4204 30.7743 17.4204L46.5777 2.35263Z" fill="#D22129"/>
<path d="M5.80524 30.6529C7.43599 31.2857 9.03073 31.8567 10.7489 31.476C12.5803 30.8638 9.51284 25.3528 10.4285 25.0493C15.3105 22.3022 17.4505 18.943 18.9784 13.7523C21.1133 4.28679 33.3259 2.45541 42.1793 3.3711C43.1619 3.43283 44.1136 3.59745 45.0241 3.83409L30.7846 17.4151C30.7846 17.4151 10.2448 37.9887 7.29195 37.9887C4.33911 37.9887 2.7135 35.0873 3.73208 33.6315C4.32882 33.1736 5.02331 32.119 5.80524 30.6529Z" fill="#BF1D29"/>
<path d="M6.85071 30.8852C6.85071 30.8852 4.58206 31.0961 3.49661 31.945C2.41116 32.7938 1.02734 34.1724 0.929597 35.0624C0.831855 35.9524 1.42345 35.654 1.42345 35.654C1.42345 35.654 -0.253604 36.7395 0.0396227 38.4165C0.332849 40.0936 0.337995 40.0936 0.337995 40.0936C0.337995 40.0936 0.734112 39.4042 1.13022 39.1059C1.13022 39.1059 0.142513 41.9712 1.81956 43.1544C3.49661 44.3376 6.55748 45.6237 8.23968 44.7337L7.64808 44.1421C7.64808 44.1421 9.22739 45.2276 11.3983 43.8438C13.5692 42.46 13.1731 39.7952 13.1731 39.7952L12.6792 40.1913C12.6792 40.1913 13.4766 39.2756 13.1988 37.1304C12.9107 34.8927 11.8561 32.3359 11.8561 32.3359L11.8253 33.6117C11.8253 33.6117 9.50004 30.2319 6.85071 30.8852Z" fill="white"/>
<path d="M10.4054 40.0521C8.03902 41.2353 5.67263 39.7743 4.75179 37.84C4.79809 38.2773 4.37112 38.8895 5.04502 39.229C2.03559 38.2258 2.82267 34.7843 3.44514 31.9806C2.36483 32.8294 1.02216 34.1875 0.924414 35.0621C0.826672 35.952 1.41827 35.6537 1.41827 35.6537C1.41827 35.6537 -0.258778 36.7391 0.0344482 38.4162C0.327675 40.0932 0.33282 40.0932 0.33282 40.0932C0.33282 40.0932 0.728929 39.4039 1.12504 39.1055C1.12504 39.1055 0.137338 41.9709 1.81439 43.1541C3.49144 44.3373 6.55231 45.6234 8.2345 44.7334L7.64291 44.1418C7.64291 44.1418 9.22221 45.2273 11.3931 43.8434C13.564 42.4596 13.1679 39.7949 13.1679 39.7949L12.6741 40.191C12.6741 40.191 13.4611 39.2856 13.1988 37.1661C12.3603 37.6805 11.4086 37.984 10.4003 37.984C12.4683 38.8174 9.58232 39.229 10.4054 40.0521Z" fill="#E9EEFB"/>
<path d="M63.2812 25.7748C63.2812 25.7748 66.1878 14.6939 57.4373 9.58557C48.6868 4.47725 45.7442 0.114868 39.3241 0.114868C32.904 0.114868 23.2481 5.21804 21.211 12.1732C19.1738 19.1283 18.9732 25.8879 19.9918 28.5115C21.0103 31.1403 59.3561 35.4718 63.2812 25.7748Z" fill="#D22129"/>
<path d="M65.3751 25.9807C65.0407 25.1473 64.1559 24.674 63.2814 24.8747C57.5249 26.1813 36.2068 30.3482 20.5012 24.5197C16.8384 22.9147 17.7541 28.6043 17.1419 31.4028C16.5298 34.2065 14.6315 36.3619 17.6821 38.4608C20.7327 40.5597 40.0856 45.7863 65.3031 38.4608C71.1007 35.9812 64.6601 32.4728 65.5757 30.3379C66.2805 28.7072 65.9667 27.4674 65.3751 25.9807Z" fill="white"/>
<path d="M59.4745 34.4637C59.2431 34.5203 59.0116 34.5871 58.7852 34.6592C58.8161 34.5408 58.991 34.4637 59.4745 34.4637Z" fill="#EAE9D8"/>
<path d="M49.5358 35.9967C48.8053 36.4546 48.0491 36.7118 47.2826 36.8764C47.8381 36.2231 48.6149 35.7652 49.5358 35.9967Z" fill="#EAE9D8"/>
<path d="M17.1419 31.4027C17.6255 29.1701 17.147 25.1164 18.7778 24.3601C18.4126 28.3573 22.1731 30.8626 24.2977 33.6971C22.7698 34.4636 20.8561 34.0778 19.3282 34.0778C21.6226 41.3416 30.0336 37.1386 35.3888 38.6665C35.0081 39.0472 34.6223 39.433 33.861 39.433C35.7746 39.433 38.069 40.1995 39.9776 38.6665C42.3028 36.9226 44.8492 37.3856 47.2825 36.8711C46.907 37.3084 46.6292 37.8228 46.48 38.2858C51.1973 39.0112 54.5411 35.9503 58.7904 34.6539C58.7286 34.906 59.3614 35.3484 59.099 35.6056C60.2462 35.6056 61.0127 35.6056 61.7741 34.8391C63.0241 33.5891 64.2742 32.4264 65.6374 31.4645C66.4348 33.5736 70.1799 36.3773 65.3134 38.4556C40.0907 45.7811 20.7429 40.5545 17.6923 38.4556C14.6315 36.367 16.5349 34.2064 17.1419 31.4027Z" fill="#E9EEFB"/>
</svg>
